<?xml version="1.0" encoding="utf-8"?>
<!-- Generator: Adobe Illustrator 19.2.1, SVG Export Plug-In . SVG Version: 6.00 Build 0)  -->
<svg version="1.1" id="Capa_1" xmlns="http://www.w3.org/2000/svg" xmlns:xlink="http://www.w3.org/1999/xlink" x="0px" y="0px"
	 width="1200px" height="797px" viewBox="0 0 1200 797" style="enable-background:new 0 0 1200 797;" xml:space="preserve">
<style type="text/css">
	.st0{fill:#0C1D2C;}
	.st1{fill:#035780;}
</style>
<rect x="0" y="0" class="st0" width="1200" height="797"/>
<g>
	<path class="st1" d="M915.042,504.47c0,43.52-27.52,66.239-57.599,66.239c-31.679,0-56.639-23.68-56.639-62.719
		c0-37.119,22.72-65.278,58.238-65.278C894.883,442.712,915.042,468.951,915.042,504.47z M836.964,506.71
		c0,21.76,7.36,37.439,21.439,37.439c13.76,0,20.479-14.08,20.479-37.439c0-21.119-5.76-37.439-20.8-37.439
		C843.684,469.271,836.964,485.91,836.964,506.71z M860.003,657.746L979.36,442.712h26.239L885.923,657.746H860.003z
		 M1064.798,590.868c0,43.519-27.519,66.238-57.598,66.238c-31.359,0-56.319-23.68-56.639-62.719
		c0-37.119,22.719-65.278,58.238-65.278C1044.639,529.109,1064.798,555.349,1064.798,590.868z M987.04,593.108
		c-0.32,21.759,7.04,37.438,21.12,37.438c13.759,0,20.479-14.079,20.479-37.438c0-21.12-5.44-37.439-20.479-37.439
		C993.44,555.669,987.04,572.309,987.04,593.108z"/>
</g>
<g>
	<path class="st1" d="M940.942,352.567c0,16.806-10.627,25.58-22.243,25.58c-12.234,0-21.872-9.145-21.872-24.22
		c0-14.334,8.774-25.209,22.49-25.209C933.157,328.718,940.942,338.851,940.942,352.567z M910.791,353.432
		c0,8.403,2.842,14.458,8.279,14.458c5.314,0,7.909-5.437,7.909-14.458c0-8.156-2.224-14.458-8.032-14.458
		C913.385,338.974,910.791,345.4,910.791,353.432z M919.688,411.758l46.093-83.041h10.133l-46.216,83.041H919.688z M998.774,385.932
		c0,16.806-10.627,25.58-22.243,25.58c-12.11,0-21.749-9.145-21.872-24.22c0-14.334,8.773-25.209,22.49-25.209
		C990.989,362.082,998.774,372.215,998.774,385.932z M968.746,386.797c-0.124,8.403,2.719,14.458,8.156,14.458
		c5.313,0,7.909-5.437,7.909-14.458c0-8.156-2.101-14.458-7.909-14.458C971.218,372.339,968.746,378.765,968.746,386.797z"/>
</g>
<g>
	<path class="st1" d="M774.451,640.553c0,16.806-10.627,25.58-22.243,25.58c-12.234,0-21.872-9.144-21.872-24.22
		c0-14.334,8.774-25.209,22.49-25.209C766.666,616.703,774.451,626.836,774.451,640.553z M744.299,641.418
		c0,8.403,2.842,14.458,8.279,14.458c5.314,0,7.909-5.437,7.909-14.458c0-8.156-2.224-14.458-8.032-14.458
		C746.894,626.959,744.299,633.385,744.299,641.418z M753.196,699.744l46.093-83.041h10.133l-46.216,83.041H753.196z
		 M832.283,673.917c0,16.806-10.627,25.58-22.243,25.58c-12.11,0-21.749-9.144-21.872-24.22c0-14.334,8.773-25.209,22.49-25.209
		C824.498,650.068,832.283,660.201,832.283,673.917z M802.255,674.783c-0.124,8.403,2.719,14.458,8.156,14.458
		c5.313,0,7.909-5.437,7.909-14.458c0-8.156-2.101-14.458-7.909-14.458C804.726,660.324,802.255,666.75,802.255,674.783z"/>
</g>
<g>
	<path class="st1" d="M1068.811,456.223c0,9.521-6.02,14.491-12.601,14.491c-6.93,0-12.391-5.18-12.391-13.721
		c0-8.12,4.97-14.281,12.741-14.281C1064.401,442.712,1068.811,448.452,1068.811,456.223z M1051.73,456.713
		c0,4.76,1.61,8.191,4.69,8.191c3.01,0,4.48-3.08,4.48-8.191c0-4.62-1.26-8.191-4.55-8.191
		C1053.2,448.522,1051.73,452.162,1051.73,456.713z M1056.77,489.754l26.112-47.043h5.74l-26.181,47.043H1056.77z M1101.573,475.124
		c0,9.52-6.02,14.491-12.6,14.491c-6.86,0-12.321-5.18-12.391-13.721c0-8.12,4.97-14.281,12.741-14.281
		C1097.162,461.613,1101.573,467.353,1101.573,475.124z M1084.562,475.614c-0.07,4.76,1.54,8.19,4.62,8.19
		c3.01,0,4.48-3.08,4.48-8.19c0-4.62-1.19-8.191-4.48-8.191C1085.962,467.423,1084.562,471.064,1084.562,475.614z"/>
</g>
<g>
	<path class="st1" d="M1068.225,341.431c0,7.295-4.613,11.104-9.655,11.104c-5.31,0-9.495-3.969-9.495-10.514
		c0-6.222,3.809-10.943,9.763-10.943C1064.846,331.079,1068.225,335.477,1068.225,341.431z M1055.137,341.807
		c0,3.648,1.234,6.276,3.594,6.276c2.307,0,3.433-2.36,3.433-6.276c0-3.54-0.965-6.276-3.487-6.276
		C1056.263,335.531,1055.137,338.32,1055.137,341.807z M1058.999,367.126l20.008-36.047h4.399l-20.062,36.047H1058.999z
		 M1093.329,355.915c0,7.295-4.613,11.104-9.655,11.104c-5.257,0-9.441-3.97-9.495-10.514c0-6.222,3.808-10.943,9.763-10.943
		C1089.95,345.562,1093.329,349.96,1093.329,355.915z M1080.294,356.29c-0.054,3.647,1.18,6.276,3.54,6.276
		c2.306,0,3.433-2.36,3.433-6.276c0-3.54-0.912-6.276-3.433-6.276C1081.367,350.014,1080.294,352.803,1080.294,356.29z"/>
</g>
<g>
</g>
<g>
</g>
<g>
</g>
<g>
</g>
<g>
</g>
<g>
</g>
</svg>
